HIERARCHY
ROOT Hips
{
	OFFSET -0.001795 -0.223333 0.028219
	CHANNELS 6 Xposition Yposition Zposition Zrotation Yrotation Xrotation 
	JOINT LeftUpLeg
	{
		OFFSET 0.069520 -0.091406 -0.006815
		CHANNELS 3 Zrotation Yrotation Xrotation
		JOINT LeftLeg
		{
			OFFSET 0.034277 -0.375199 -0.004496
			CHANNELS 3 Zrotation Yrotation Xrotation
			JOINT LeftFoot
			{
				OFFSET -0.013596 -0.397961 -0.043693
				CHANNELS 3 Zrotation Yrotation Xrotation
				JOINT LeftToe
				{
					OFFSET 0.026358 -0.055791 0.119288
					CHANNELS 3 Zrotation Yrotation Xrotation
					End Site
					{
						OFFSET 0.000000 0.000000 0.000000
					}
				}
			}
		}
	}
	JOINT RightUpLeg
	{
		OFFSET -0.067670 -0.090522 -0.004320
		CHANNELS 3 Zrotation Yrotation Xrotation
		JOINT RightLeg
		{
			OFFSET -0.038290 -0.382569 -0.008850
			CHANNELS 3 Zrotation Yrotation Xrotation
			JOINT RightFoot
			{
				OFFSET 0.015774 -0.398415 -0.042312
				CHANNELS 3 Zrotation Yrotation Xrotation
				JOINT RightToe
				{
					OFFSET -0.025372 -0.048144 0.123348
					CHANNELS 3 Zrotation Yrotation Xrotation
					End Site
					{
						OFFSET 0.000000 0.000000 0.000000
					}
				}
			}
		}
	}
	JOINT Spine
	{
		OFFSET -0.002533 0.108963 -0.026696
		CHANNELS 3 Zrotation Yrotation Xrotation
		JOINT Spine1
		{
			OFFSET 0.005487 0.135180 0.001092
			CHANNELS 3 Zrotation Yrotation Xrotation
			JOINT Spine2
			{
				OFFSET 0.001457 0.052922 0.025425
				CHANNELS 3 Zrotation Yrotation Xrotation
				JOINT Neck
				{
					OFFSET -0.002778 0.213870 -0.042857
					CHANNELS 3 Zrotation Yrotation Xrotation
					JOINT Head
					{
						OFFSET 0.005152 0.064970 0.051349
						CHANNELS 3 Zrotation Yrotation Xrotation
						End Site
						{
							OFFSET 0.000000 0.000000 0.000000
						}
					}
				}
				JOINT LeftShoulder
				{
					OFFSET 0.078845 0.121749 -0.034090
					CHANNELS 3 Zrotation Yrotation Xrotation
					JOINT LeftArm
					{
						OFFSET 0.090977 0.030469 -0.008868
						CHANNELS 3 Zrotation Yrotation Xrotation
						JOINT LeftForeArm
						{
							OFFSET 0.259612 -0.012772 -0.027456
							CHANNELS 3 Zrotation Yrotation Xrotation
							JOINT LeftHand
							{
								OFFSET 0.249234 0.008986 -0.001171
								CHANNELS 3 Zrotation Yrotation Xrotation
								End Site
								{
									OFFSET 0.000000 0.000000 0.000000
								}
							}
						}
					}
				}
				JOINT RightShoulder
				{
					OFFSET -0.081759 0.118833 -0.038615
					CHANNELS 3 Zrotation Yrotation Xrotation
					JOINT RightArm
					{
						OFFSET -0.096012 0.032551 -0.009143
						CHANNELS 3 Zrotation Yrotation Xrotation
						JOINT RightForeArm
						{
							OFFSET -0.253742 -0.013329 -0.021401
							CHANNELS 3 Zrotation Yrotation Xrotation
							JOINT RightHand
							{
								OFFSET -0.255298 0.007772 -0.005559
								CHANNELS 3 Zrotation Yrotation Xrotation
								End Site
								{
									OFFSET 0.000000 0.000000 0.000000
								}
							}
						}
					}
				}
			}
		}
	}
}
MOTION
Frames: 10
Frame Time: 0.050000
-0.006323 0.948700 -0.018452 0.252746 1.417744 5.966700 5.260702 -0.284328 -2.748483 0.654346 0.220008 -7.354683 -2.815818 0.498497 12.979274 0.000000 0.000000 0.000000 -2.901202 0.221725 -1.517826 -6.991614 -0.267523 -9.813757 2.330444 -1.868558 16.184942 0.000000 0.000000 0.000000 5.500983 0.229630 -4.516869 -0.869612 0.482411 -3.436350 -8.871364 4.155168 0.969032 10.158888 -6.590734 -5.852325 0.000000 0.000000 0.000000 -6.893873 0.739556 -1.550616 -43.770562 -29.388337 5.495574 128.128902 -58.198000 -96.235974 0.000000 0.000000 0.000000 4.477295 -10.763113 -4.392638 55.845659 9.745209 0.239180 -163.086559 61.532558 -139.733315 0.000000 0.000000 0.000000 
-0.005866 0.948936 -0.018027 0.243933 1.558477 5.902860 5.235983 -0.284208 -2.740005 0.635607 0.216992 -7.264822 -2.996129 0.235888 13.012137 0.000000 0.000000 0.000000 -2.883331 0.208413 -1.362258 -7.014005 -0.269112 -9.837332 2.340243 -1.787752 16.080608 0.000000 0.000000 0.000000 5.653931 0.236375 -4.572588 -0.889676 0.488455 -3.249154 -8.924712 4.473430 0.764882 10.364624 -6.693993 -5.964002 0.000000 0.000000 0.000000 -7.057123 0.800895 -1.642428 -44.047476 -28.564244 5.243686 130.639666 -58.727885 -100.233475 0.000000 0.000000 0.000000 4.449763 -10.833588 -4.409255 55.575700 9.327283 0.090189 -163.963613 60.337116 -140.010903 0.000000 0.000000 0.000000 
-0.005277 0.949208 -0.017623 0.287843 1.660635 6.030548 5.204066 -0.289160 -2.795793 0.665406 0.215506 -7.261570 -3.194982 -0.018353 13.154148 0.000000 0.000000 0.000000 -3.043110 0.227490 -1.560994 -6.892356 -0.239976 -9.530887 2.256996 -1.832142 15.850368 0.000000 0.000000 0.000000 5.719529 0.239113 -4.633558 -0.872171 0.484769 -3.405897 -9.142046 4.809924 0.729819 10.565696 -6.789553 -6.103007 0.000000 0.000000 0.000000 -7.178660 0.902450 -1.744111 -44.106181 -28.099824 5.074839 132.826276 -58.989046 -103.566238 0.000000 0.000000 0.000000 4.601493 -11.081731 -4.518265 55.450762 8.725152 -0.154396 -165.196304 58.777602 -140.625308 0.000000 0.000000 0.000000 
-0.004639 0.949575 -0.017270 0.321310 1.771224 6.160869 5.084142 -0.298523 -2.959782 0.718454 0.207707 -7.118924 -3.390149 -0.353929 13.084866 0.000000 0.000000 0.000000 -3.183687 0.237601 -1.649373 -6.707252 -0.240709 -9.498375 2.106119 -2.011468 15.655654 0.000000 0.000000 0.000000 5.811800 0.255873 -4.852620 -0.914884 0.499432 -3.183074 -9.088531 4.887316 0.522549 10.553658 -6.775939 -6.078572 0.000000 0.000000 0.000000 -7.500919 0.917951 -1.829310 -43.510507 -27.690067 4.873492 133.532209 -58.147680 -103.564463 0.000000 0.000000 0.000000 4.820228 -11.026720 -4.518904 55.146144 8.281298 -0.349988 -165.241637 57.004782 -139.383216 0.000000 0.000000 0.000000 
-0.004000 0.950000 -0.016957 0.414380 2.058687 6.344532 4.916112 -0.309511 -3.118395 0.663820 0.208924 -7.102403 -3.445909 -0.381765 13.143040 0.000000 0.000000 0.000000 -3.291978 0.246958 -1.745740 -6.760429 -0.231771 -9.419216 2.017917 -2.089104 15.577336 0.000000 0.000000 0.000000 5.750886 0.265432 -5.030704 -0.801470 0.451083 -3.151626 -9.043846 4.917581 0.302655 10.304148 -6.564695 -6.119399 0.000000 0.000000 0.000000 -7.286876 1.142513 -1.888924 -43.135800 -27.824590 4.875042 132.437702 -56.625283 -100.484141 0.000000 0.000000 0.000000 4.853078 -11.370337 -4.659570 55.160514 8.038208 -0.417767 -164.956158 55.434622 -137.571512 0.000000 0.000000 0.000000 
-0.003363 0.950165 -0.016700 0.495321 2.255923 6.490947 4.830184 -0.324888 -3.375437 0.688753 0.203384 -6.990404 -3.664846 -0.742132 13.083728 0.000000 0.000000 0.000000 -3.394313 0.246449 -1.704930 -6.635478 -0.245961 -9.530781 1.879242 -2.248273 15.420590 0.000000 0.000000 0.000000 5.673163 0.282724 -5.284585 -0.740455 0.422425 -3.025441 -8.724214 4.902993 0.176894 10.011358 -6.337525 -6.136096 0.000000 0.000000 0.000000 -7.189482 1.280080 -1.923748 -42.381943 -28.038960 4.854423 130.558579 -54.401374 -95.396556 0.000000 0.000000 0.000000 4.857591 -11.456445 -4.695443 54.778923 8.302566 -0.292215 -162.992463 54.092220 -132.891969 0.000000 0.000000 0.000000 
-0.002746 0.950406 -0.016554 0.572112 2.309856 6.575252 4.701540 -0.329187 -3.447386 0.754788 0.199703 -6.967346 -3.709700 -0.848748 12.993412 0.000000 0.000000 0.000000 -3.554342 0.254914 -1.773028 -6.510821 -0.236015 -9.404721 1.861580 -2.243049 15.346762 0.000000 0.000000 0.000000 5.563234 0.284565 -5.345727 -0.637248 0.376235 -2.977600 -8.455032 4.819921 -0.143581 9.821339 -6.212765 -6.049660 0.000000 0.000000 0.000000 -6.930015 1.433551 -1.921629 -41.709841 -28.181427 4.831531 128.686806 -52.095343 -90.159603 0.000000 0.000000 0.000000 4.836626 -11.437393 -4.688078 54.744694 8.565922 -0.150684 -161.158434 52.960253 -128.636949 0.000000 0.000000 0.000000 
-0.002133 0.950530 -0.016521 0.693084 2.411203 6.697685 4.527491 -0.342981 -3.690441 0.827176 0.191068 -6.824534 -3.799692 -1.016814 12.920124 0.000000 0.000000 0.000000 -3.695216 0.257386 -1.759008 -6.480610 -0.243756 -9.472392 1.864526 -2.137302 15.116426 0.000000 0.000000 0.000000 5.312154 0.286694 -5.446784 -0.484618 0.305881 -2.834095 -8.140358 4.793644 -0.483842 9.390008 -5.902927 -5.984422 0.000000 0.000000 0.000000 -6.768379 1.532227 -1.924725 -41.023873 -28.470683 4.854635 127.131264 -50.622756 -86.388580 0.000000 0.000000 0.000000 4.875997 -11.493253 -4.716840 54.443579 8.978496 0.049947 -159.254885 52.417471 -124.695997 0.000000 0.000000 0.000000 
-0.001525 0.950736 -0.016642 0.661589 2.295796 6.727738 4.470715 -0.348411 -3.810058 0.961608 0.187042 -6.863959 -3.883364 -1.109590 13.055643 0.000000 0.000000 0.000000 -3.670952 0.258330 -1.765272 -6.529808 -0.237068 -9.413027 1.937172 -2.036150 15.150146 0.000000 0.000000 0.000000 5.342332 0.299452 -5.589291 -0.437990 0.280188 -2.680082 -7.852151 4.706977 -0.734006 9.288383 -5.826729 -5.991998 0.000000 0.000000 0.000000 -6.238359 1.633654 -1.835099 -40.567460 -28.415420 4.776070 125.705253 -49.775604 -83.542058 0.000000 0.000000 0.000000 4.795338 -11.259353 -4.616817 54.186511 9.618188 0.334597 -156.918485 52.672423 -121.001628 0.000000 0.000000 0.000000 
-0.000939 0.950705 -0.016878 0.739134 2.162908 6.756999 4.287043 -0.349911 -3.857687 0.999021 0.187797 -6.917412 -3.790922 -0.927364 13.161008 0.000000 0.000000 0.000000 -3.752485 0.262397 -1.785301 -6.649483 -0.238666 -9.449946 2.079442 -1.824366 15.220179 0.000000 0.000000 0.000000 5.097320 0.301325 -5.649649 -0.421231 0.271359 -2.657233 -7.533203 4.700370 -0.733369 8.870344 -5.541611 -5.935490 0.000000 0.000000 0.000000 -6.106441 1.653117 -1.803529 -39.894558 -28.421038 4.680677 124.564059 -49.914393 -82.308321 0.000000 0.000000 0.000000 4.626471 -11.116726 -4.541781 53.984089 10.223664 0.588405 -154.948503 53.082676 -118.140945 0.000000 0.000000 0.000000 
